<svg xmlns="http://www.w3.org/2000/svg" viewBox="325 -5 375 360">
  <path fill="#ffffff" d="M613,0h5.42l8.79,2.7,5.41,4.06,4.74,5.41,2.71,5.42,1.33,6.09-.68,8.79-.67,4.74L641.42,44l-.68,8.12L636,61.56l-4.74,4.74-2,1.35L628.6,77.8h12.82l.68,73.06L661,165.75l10.15,8.12,11.5,8.79,6.09,4.74v.67H656.3l-21.65-.67V342.32H389.07V187.4l-22.32.67H335.63l3.39-3.39,10.82-8.79,11.5-8.8,7.45-6.09,17.59-13.53,10.81-8.79,11.5-8.8,10.83-8.79,11.5-8.8,10.82-8.79,8.8-6.77,10.14-8.12,11.51-8.79L483.11,71l11.5-8.79,10.83-8.8,6.08-4.75,3.39,2,9.47,7.44,10.15,8.12L546,75l10.82,8.8L569,93.36l6.76,5.41.68-21h12.86V57.47l-4.06-.67-6.77-4.74-4.72-5.38L571,41.27l-1.35-6.09.67-8.8,3.39-8.12,5.41-6.09,6.76-4.05,4.74-1.36,8.12-.67L604.85,2Zm-.67,13.53-5.41,2.7-3.39,4.06-8.12-.67-6.76,2-4.06,4.73-1.35,3.38v6.09l2.7,5.42,4.72,3.44,2.7.67h9.48V77.83H615v-19l6.09-2,5.41-4.74,1.37-3.41V43.29l-2-5.41-.68-3.38,2.71-5.41V23.68l-2-4.74-3.38-3.38-4.74-2ZM511.52,65.62l-10.82,8.8-11.5,8.79L478.37,92l-8.79,6.76-56.83,44.65-10.15,8.12-8.79,6.77-12.18,9.47-7.44,6.09v.67h19.62l9.47-6.76,12.85-9.47,11.5-8.12,12.86-9.51,11.5-8.12,12.18-8.8L477,114.33l11.5-8.12,12.18-8.79L510.85,90l3.38.67,8.8,6.77,11.5,8.12,85.24,61.56,10.82,7.44h19.62l-3.38-3.38L599.47,134l-12.17-9.47-18.95-14.89-6.76-5.41-12.18-9.5-10.15-8.12-8.79-6.76L521,72.39l-8.8-6.77Zm77.81,25v19.62l8.11,6.09,10.15,8.12,11.5,8.79,7.44,6.09h1.36V90.68Zm-77.81,14.92-8.79,6.08-12.18,8.8-10.82,8.12-11.5,8.14-48.71,35.16-2.71,2.7h69l.67-38.56,51.42-.68v39.24h69l-3.39-3.38-12.83-9.48-9.47-6.77-36.54-26.38-12.85-9.47-12.18-8.8-6.76-4.73Zm-12.17,43.29v25.71h25V148.83ZM402.6,187.4v25.7H621.8V187.4Zm0,39.24v25H621.8v-25Zm0,38.56v25h25v-25Zm38.56,0v63.59h44.66V265.2Zm58.19,0v25h38.56v-25Zm51.41,0v25h31.8v-25Zm45.33,0v25H621.8v-25ZM402.6,303.76v25h25v-25Zm96.75,0v25H621.8v-25Z"/>
</svg>