<?xml version="1.0" encoding="UTF-8"?>
<svg version="1.1" viewBox="0 0 1892 835" width="1280" height="1280" xmlns="http://www.w3.org/2000/svg">
<path transform="translate(1108,29)" d="m0 0h8l13 4 8 6 7 8 4 8 2 9-1 13-1 7 2 10-1 12-7 14-7 7-3 2-1 15h19l1 108 28 22 15 12 17 13 9 7v1h-48l-32-1v229h-363v-229l-33 1h-46l5-5 16-13 17-13 11-9 26-20 16-13 17-13 16-13 17-13 16-13 13-10 15-12 17-13 16-13 17-13 16-13 9-7 5 3 14 11 15 12 17 13 16 13 18 14 10 8 1-31h19v-30l-6-1-10-7-7-8-4-8-2-9 1-13 5-12 8-9 10-6 7-2 12-1 9-6zm-1 20-8 4-5 6-12-1-10 3-6 7-2 5v9l4 8 7 5 4 1h14v48h18v-28l9-3 8-7 2-5v-8l-3-8-1-5 4-8v-8l-3-7-5-5-7-3zm-149 77-16 13-17 13-16 13-13 10-84 66-15 12-13 10-18 14-11 9v1h29l14-10 19-14 17-12 19-14 17-12 18-13 19-14 17-12 18-13 15-11 5 1 13 10 17 12 126 91 16 11h29l-5-5-70-55-18-14-28-22-10-8-18-14-15-12-13-10-14-11-13-10zm115 37v29l12 9 15 12 17 13 11 9h2v-72zm-115 22-13 9-18 13-16 12-17 12-72 52-4 4h102l1-57 76-1v58h102l-5-5-19-14-14-10-54-39-19-14-18-13-10-7zm-18 64v38h37v-38zm-143 57v38h324v-38zm0 58v37h324v-37zm0 57v37h37v-37zm57 0v94h66v-94zm86 0v37h57v-37zm76 0v37h47v-37zm67 0v37h38v-37zm-286 57v37h37v-37zm143 0v37h181v-37z" fill="#fff"/>
<path transform="translate(1314,578)" d="m0 0h37l2 6 24 127h1l24-130 2-3h37v15h-15v141h15v14h-43v-14h13l-1-118-25 130-1 2h-13l-2-6-24-125-1 117h13v14h-44v-14h16l-1-140-14-1-1-1v-13z" fill="#fff"/>
<path transform="translate(235,578)" d="m0 0h44l1 1v14h-15v58h41v-58h-14l-1-1v-13l1-1h45l1 1v13l-1 1h-15v141h16v14h-47v-14h15v-68h-41v68h15v14h-46v-14h15v-141h-15v-14z" fill="#fff"/>
<path transform="translate(713,578)" d="m0 0h45v15h-15l1 54 17-32 12-22h-8v-15h37l1 1v14l-13 1-12 22-15 28-4 8 19 45 15 35v2h14v14h-41v-14l10-1-16-38-11-27h-2l-3 6-1 60h15v14h-46v-14h15v-141h-15v-14z" fill="#fff"/>
<path transform="translate(521,578)" d="m0 0h44l1 1v14h-15l1 123 2 11 4 6 5 3h13l6-4 3-5 2-9 1-125h-15v-14l1-1h44l1 1v14h-15v122l-2 13-4 11-6 7-8 4-10 2h-9l-10-2-9-5-6-9-4-13-1-8v-122h-15v-14z" fill="#fff"/>
<path transform="translate(1486,576)" d="m0 0h16l10 5 7 6 8 13 6 18 3 17 1 10v37l-3 22-4 15-5 12-8 11-8 6-7 3h-16l-12-6-8-9-8-16-5-19-2-15v-45l3-20 5-16 7-14 7-8 10-6zm4 14-7 4-6 8-4 10-3 14-2 20v35l3 26 5 16 6 9 5 4 10 1 8-4 6-9 4-10 3-15 2-26v-18l-2-27-4-18-5-11-5-6-6-3z" fill="#fff"/>
<path transform="translate(1640,578)" d="m0 0h74l1 1v50l-1 1h-13v-37h-29v58h27v15h-27v68h30v-39l1-1h13v54h-76v-14h15v-141h-15z" fill="#fff"/>
<path transform="translate(1236,578)" d="m0 0h35l2 6 24 146v4h11v14h-40v-14h13l-6-39v-4h-25l-1 14-4 28 13 1v14h-41v-14h12l3-22 19-119h-16v-14zm26 29-4 25-6 43v2h21l-10-70z" fill="#fff"/>
<path transform="translate(826,578)" d="m0 0h36l2 8 24 147 11 1v14h-40v-14h13l-6-36v-7h-25l-3 25-2 15-1 3h13v14h-40v-14h12l1-12 20-125 1-4h-16zm26 30-9 64v5h20l-1-13-8-54z" fill="#fff"/>
<path transform="translate(361,578)" d="m0 0h35l2 4 24 146v6h11l1 13-1 1h-39v-14h13l-3-15-4-26-1-2h-23l-2 16-1 3-1 11-2 13h13v12l-1 2h-39v-14l11-1 22-138 1-2h-16l-1-1v-13zm26 28-9 64v7h20l-2-17-8-54z" fill="#fff"/>
<path transform="translate(624,578)" d="m0 0h49l11 2 8 6 6 8 4 10 2 10 1 21-2 18-4 13-7 10-7 5-6 2h-25v51h15v14h-46v-14h15v-141h-15v-14zm30 15v76h20l7-4 4-9 2-11v-29l-3-13-4-6-6-4z" fill="#fff"/>
<path transform="translate(1164,576)" d="m0 0h14l8 4 4 3 1-5h13l1 1v50l-1 1h-13l-1-24-3-9-4-5-6-2-8 1-6 5-4 10-1 5v13l3 10 6 9 10 9 13 10 9 9 7 12 3 11v24l-3 12-5 10-7 7-9 4-8 1-12-2-9-6-2-2-1 6h-14v-56h14l1 28 4 10 5 5 6 2 10-1 7-5 5-12 1-7v-12l-3-11-6-9-5-5-11-9-8-6-7-6-7-11-4-12v-24l4-13 5-8 5-5 6-4z" fill="#fff"/>
<path transform="translate(1549,578)" d="m0 0h82l1 1v53h-14v-39h-20v141h18v14h-51v-14h17v-141h-20v39h-14v-53z" fill="#fff"/>
<path transform="translate(188,575)" d="m0 0 11 2 8 6 2 2 2-7h13v59h-14l-1-26-3-10-7-8-5-2h-9l-7 4-6 10-4 13-3 20-1 30 1 23 3 20 5 14 8 9 7 2h7l7-4 6-9 5-13 2-6h14l-1 10-5 13-7 12-7 7-11 5-9 1-10-2-8-4-7-6-7-11-6-16-4-20-1-11v-36l3-22 6-20 7-13 8-9 12-6z" fill="#fff"/>
<path transform="translate(990,627)" d="m0 0 9 1 6 5 3 6 2 10v85h10v14h-34v-14h8l-1-85-2-6h-6l-6 8-5 13-1 70h7v14h-33v-14h10v-89h-10v-15h25l1 1 1 9 9-10z" fill="#fff"/>
<path transform="translate(439,578)" d="m0 0h46l1 1v14h-16v141h31v-39l1-1h13v54h-76v-14h15v-141h-15z" fill="#fff"/>
<path transform="translate(1051,627)" d="m0 0h8l9 3 7 8 3 9 1 8v79h10v14h-26l-1-5-5 5-4 3-7 1-6-2-6-5-4-8-3-14v-11l2-13 4-10 8-8 11-5 11-2-1-21-3-10-1-1h-6l-3 6-2 11-11-1-4-1v-7l3-10 5-8 7-4zm8 60-8 3-5 5-2 5-1 6v23l5 8 5 1 5-4 5-10v-37z" fill="#fff"/>
<path transform="translate(586,532)" d="m0 0h2l7 11-1 3-25 15-8 5h-3l-4-7v-2l13-10 18-14z" fill="#fff"/>
</svg>
