<svg id="Layer_1" data-name="Layer 1" xmlns="http://www.w3.org/2000/svg" viewBox="0 0 1011.72 520.01"><defs><style>.cls-1{fill:#fff;}.cls-2{isolation:isolate;}</style></defs><path class="cls-1" d="M613,0h5.42l8.79,2.7,5.41,4.06,4.74,5.41,2.71,5.42,1.33,6.09-.68,8.79-.67,4.74L641.42,44l-.68,8.12L636,61.56l-4.74,4.74-2,1.35L628.6,77.8h12.82l.68,73.06L661,165.75l10.15,8.12,11.5,8.79,6.09,4.74v.67H656.3l-21.65-.67V342.32H389.07V187.4l-22.32.67H335.63l3.39-3.39,10.82-8.79,11.5-8.8,7.45-6.09,17.59-13.53,10.81-8.79,11.5-8.8,10.83-8.79,11.5-8.8,10.82-8.79,8.8-6.77,10.14-8.12,11.51-8.79L483.11,71l11.5-8.79,10.83-8.8,6.08-4.75,3.39,2,9.47,7.44,10.15,8.12L546,75l10.82,8.8L569,93.36l6.76,5.41.68-21h12.86V57.47l-4.06-.67-6.77-4.74-4.72-5.38L571,41.27l-1.35-6.09.67-8.8,3.39-8.12,5.41-6.09,6.76-4.05,4.74-1.36,8.12-.67L604.85,2Zm-.67,13.53-5.41,2.7-3.39,4.06-8.12-.67-6.76,2-4.06,4.73-1.35,3.38v6.09l2.7,5.42,4.72,3.44,2.7.67h9.48V77.83H615v-19l6.09-2,5.41-4.74,1.37-3.41V43.29l-2-5.41-.68-3.38,2.71-5.41V23.68l-2-4.74-3.38-3.38-4.74-2ZM511.52,65.62l-10.82,8.8-11.5,8.79L478.37,92l-8.79,6.76-56.83,44.65-10.15,8.12-8.79,6.77-12.18,9.47-7.44,6.09v.67h19.62l9.47-6.76,12.85-9.47,11.5-8.12,12.86-9.51,11.5-8.12,12.18-8.8L477,114.33l11.5-8.12,12.18-8.79L510.85,90l3.38.67,8.8,6.77,11.5,8.12,85.24,61.56,10.82,7.44h19.62l-3.38-3.38L599.47,134l-12.17-9.47-18.95-14.89-6.76-5.41-12.18-9.5-10.15-8.12-8.79-6.76L521,72.39l-8.8-6.77Zm77.81,25v19.62l8.11,6.09,10.15,8.12,11.5,8.79,7.44,6.09h1.36V90.68Zm-77.81,14.92-8.79,6.08-12.18,8.8-10.82,8.12-11.5,8.14-48.71,35.16-2.71,2.7h69l.67-38.56,51.42-.68v39.24h69l-3.39-3.38-12.83-9.48-9.47-6.77-36.54-26.38-12.85-9.47-12.18-8.8-6.76-4.73Zm-12.17,43.29v25.71h25V148.83ZM402.6,187.4v25.7H621.8V187.4Zm0,39.24v25H621.8v-25Zm0,38.56v25h25v-25Zm38.56,0v63.59h44.66V265.2Zm58.19,0v25h38.56v-25Zm51.41,0v25h31.8v-25Zm45.33,0v25H621.8v-25ZM402.6,303.76v25h25v-25Zm96.75,0v25H621.8v-25Z" transform="translate(-1.71)"/><g class="cls-2"><path class="cls-1" d="M63.66,452.42q0,65.63-39.14,65.63H1.71V509.5h9.83V397.82H1.71v-8.54H24.52Q63.66,389.28,63.66,452.42Zm-9.74.35q0-27.43-7.09-41.19t-22-13.76H21V509.5h4q14.87,0,21.87-14.09T53.92,452.77Z" transform="translate(-1.71)"/><path class="cls-1" d="M130.91,454.9q0,65.12-27.77,65.11-15.65,0-22.09-17.09T74.6,452.6q0-30.94,7.09-48.2t21.45-17.26q10.85,0,16.87,7.52t8.46,22.13Q130.92,431.4,130.91,454.9Zm-27.77,55.8q9.57,0,13.75-14t4.19-43.07q0-28.87-3.76-43T103,396.46q-18.47,0-18.46,57.16,0,31.36,4.66,44.22T103.14,510.7Z" transform="translate(-1.71)"/><path class="cls-1" d="M203,389.28h24.52v8.54h-9.83V509.5h9.83v8.55H199V509.5h9.66V404.66l-23,113.39h-6.07L157,404.49v105h9.49v8.55H138.94V509.5h9.83V397.82h-9.83v-8.54h23.67L183,492.33Z" transform="translate(-1.71)"/><path class="cls-1" d="M279.85,402V389.28h8.2v41.1h-8.37q-2.82-33.93-17.35-33.92-9.06,0-12.95,15.12t-3.88,41.7q0,27.51,4.14,42.47t14.48,14.95q8.2,0,12-8.42t5.29-25.5l8.46,2.73q-2.13,21.19-8.24,30.85T263.35,520q-14.87,0-21.32-17.26T235.58,454q0-31.09,6.54-49t20.21-17.86c4.56,0,8.14,1.17,10.77,3.51S278,396.77,279.85,402ZM274,353.73h6.49l-11.1,27.69H259.08l-10.51-27.69h6.5l9.22,21.36Z" transform="translate(-1.71)"/><path class="cls-1" d="M344,420.55V397.82H317.79v49.73H340v8.55H317.79v53.4H344V486.35h8.54v31.7H298.13V509.5H308.3V397.82H298.13v-8.54h54.43v31.27Z" transform="translate(-1.71)"/><path class="cls-1" d="M415.62,397.82l-26.14,52,26.83,59.72h8.2v8.55H395.63V509.5h9.83L379.74,450V509.5h8.71v8.55h-28V509.5h9.83V397.82h-9.83v-8.54h28v8.54h-8.71v52l25.2-52h-8.8v-8.54h27.52v8.54Z" transform="translate(-1.71)"/><path class="cls-1" d="M503,446.79V509.5h9.83v8.55H494.15V448.41q0-13-8.37-13-3.93,0-7.61,3.5a32.72,32.72,0,0,0-6.23,8.29V509.5h7.69v8.55H453.22V509.5H463V436.87H452.8v-8.63h19.14v10q6.66-11.19,16.91-11.19a12.5,12.5,0,0,1,10.43,4.82Q503,436.7,503,446.79Z" transform="translate(-1.71)"/><path class="cls-1" d="M561,451.06V509.5h9.23v8.55H552.6v-6a16.47,16.47,0,0,1-14,7.35q-7.87,0-13-7.09t-5.08-19.83q0-12.56,5.25-19.91a17,17,0,0,1,14.66-7.35,17.35,17.35,0,0,1,11.7,4.19v-18.2q0-9.15-2.52-13.42a8.51,8.51,0,0,0-7.9-4.27,9.22,9.22,0,0,0-7.39,3.25q-2.79,3.24-4.4,10.76l-7.87-2.64q1.8-9.5,6.93-14.27a18.38,18.38,0,0,1,13.07-4.79q9.74,0,14.31,6T561,451.06Zm-20.68,60.67a9.84,9.84,0,0,0,6.59-2.18,30,30,0,0,0,5.29-6.37V476.44a13.26,13.26,0,0,0-4.48-2.74,17,17,0,0,0-5.43-.77,10.6,10.6,0,0,0-9.57,5.13q-3.24,5.13-3.25,14.78,0,9,2.82,13.93T540.29,511.73Z" transform="translate(-1.71)"/><path class="cls-1" d="M641.3,395.34v-6.06h8.2v34.6h-8.2v-7.51q0-9.83-3.93-14.87a12.59,12.59,0,0,0-10.43-5,11.32,11.32,0,0,0-9.57,4.52Q614,405.51,614,413.55a35.54,35.54,0,0,0,3.68,16.57q3.68,7.1,12,16.67,11.53,13.15,17,23.41A46.9,46.9,0,0,1,652,492.5q0,11.72-6.24,19.31a19.92,19.92,0,0,1-16.15,7.61,22.92,22.92,0,0,1-10.34-2.1,16.4,16.4,0,0,1-6.84-6.62v7.35H604V473.79h8.37v13.33a34.39,34.39,0,0,0,3.94,16.23,13,13,0,0,0,12.3,7.52A12,12,0,0,0,638.73,506c2.51-3.28,3.76-7.53,3.76-12.78a38.79,38.79,0,0,0-4.27-18.2q-4.28-8.21-13.76-19.39l-2.73-3.17q-5.64-6.66-9.06-11.45a47.39,47.39,0,0,1-5.85-11.45,42.89,42.89,0,0,1-2.44-14.86q0-13,6.2-19.83T626.77,388A17.25,17.25,0,0,1,641.3,395.34Z" transform="translate(-1.71)"/><path class="cls-1" d="M731.87,509.5v8.55H705V509.5h8.71l-7.18-40.41H683.08l-7,40.41h9.15v8.55H658V509.5h8.63l19.91-111.68h-8.37v-8.54H712v8.54h-8.54L723.5,509.5Zm-26.74-48.87L694.79,402l-10.34,58.62Z" transform="translate(-1.71)"/><path class="cls-1" d="M798.44,389.28H823v8.54h-9.83V509.5H823v8.55H794.42V509.5h9.66V404.66l-23,113.39H775L752.38,404.49v105h9.49v8.55H734.35V509.5h9.83V397.82h-9.83v-8.54H758l20.34,103.05Z" transform="translate(-1.71)"/><path class="cls-1" d="M887.3,454.9q0,65.12-27.77,65.11-15.63,0-22.08-17.09T831,452.6q0-30.94,7.1-48.2t21.44-17.26q10.86,0,16.88,7.52t8.46,22.13Q887.3,431.4,887.3,454.9Zm-27.77,55.8q9.57,0,13.76-14t4.19-43.07q0-28.87-3.76-43t-14.36-14.14q-18.45,0-18.45,57.16,0,31.36,4.65,44.22T859.53,510.7Z" transform="translate(-1.71)"/><path class="cls-1" d="M945.41,429.87V397.82H930.2V509.5h11v8.55H909.69V509.5h11V397.82H905.33v32.05H897V389.28H954v40.59Z" transform="translate(-1.71)"/><path class="cls-1" d="M1004.88,420.55V397.82H978.65v49.73h22.22v8.55H978.65v53.4h26.23V486.35h8.55v31.7H959V509.5h10.17V397.82H959v-8.54h54.43v31.27Z" transform="translate(-1.71)"/></g></svg>