<svg id="Layer_1" data-name="Layer 1" xmlns="http://www.w3.org/2000/svg" viewBox="0 0 1023.72 561.97"><defs><style>.cls-1,.cls-2{fill:#fff;}.cls-2{font-size:175px;font-family:RockwellNova-CondLight, Rockwell Nova;font-weight:300;}</style></defs><path class="cls-1" d="M638,43.32h5.42l8.79,2.7,5.41,4.06,4.74,5.41,2.71,5.42L666.4,67l-.68,8.79-.67,4.74,1.35,6.76-.68,8.12L661,104.88l-4.74,4.74-2,1.35-.68,10.15H666.4l.68,73.06L686,209.07l10.15,8.12,11.5,8.79,6.09,4.74v.67H681.28l-21.65-.67V385.64H414.05V230.72l-22.32.67H360.61L364,228l10.82-8.79,11.5-8.8,7.45-6.09,17.59-13.53L422.17,182l11.5-8.8,10.83-8.79,11.5-8.8,10.82-8.79,8.8-6.77,10.14-8.12,11.51-8.79,10.82-8.8,11.5-8.79,10.83-8.8L536.5,92l3.39,2,9.47,7.44,10.15,8.12,11.5,8.79,10.82,8.8L594,136.68l6.76,5.41.68-21h12.86v-20.3l-4.06-.67-6.77-4.74L598.75,90,596,84.59l-1.35-6.09.67-8.8,3.39-8.12,5.41-6.09,6.76-4.05,4.74-1.36,8.12-.67,6.09-4.06Zm-.67,13.53-5.41,2.7-3.39,4.06-8.12-.67-6.76,2-4.06,4.73-1.35,3.38v6.09l2.7,5.42L615.66,88l2.7.67h9.48v32.48H640v-19l6.09-2,5.41-4.74L652.87,92V86.61l-2-5.41-.68-3.38,2.71-5.41V67l-2-4.74-3.38-3.38-4.74-2ZM536.5,108.94l-10.82,8.8-11.5,8.79-10.83,8.8-8.79,6.76-56.83,44.65-10.15,8.12-8.79,6.77-12.18,9.47-7.44,6.09v.67h19.62l9.47-6.76,12.85-9.47,11.5-8.12L465.47,184l11.5-8.12,12.18-8.8L502,157.65l11.5-8.12,12.18-8.79,10.15-7.44,3.38.67,8.8,6.77,11.5,8.12,85.24,61.56,10.82,7.44h19.62l-3.38-3.38-47.36-37.21-12.17-9.47-18.95-14.89-6.76-5.41L574.39,138l-10.15-8.12-8.79-6.76L546,115.71l-8.8-6.77Zm77.81,25v19.62l8.11,6.09,10.15,8.12,11.5,8.79,7.44,6.09h1.36V134ZM536.5,148.86l-8.79,6.08-12.18,8.8-10.82,8.12L493.21,180,444.5,215.16l-2.71,2.7h69l.67-38.56,51.42-.68v39.24h69l-3.39-3.38L615.66,205l-9.47-6.77-36.54-26.38-12.85-9.47-12.18-8.8-6.76-4.73Zm-12.17,43.29v25.71h25V192.15Zm-96.75,38.57v25.7h219.2v-25.7Zm0,39.24v25h219.2V270Zm0,38.56v25h25v-25Zm38.56,0v63.59H510.8V308.52Zm58.19,0v25h38.56v-25Zm51.41,0v25h31.8v-25Zm45.33,0v25h25.71v-25ZM427.58,347.08v25h25v-25Zm96.75,0v25H646.78v-25Z" transform="translate(-24.98 -43.32)"/><text class="cls-2" transform="translate(0 518.05)">DOMČEK na SAMOTE</text></svg>